# xmcd CD database file
#
# Track frame offsets:
#	150
#	8796
#	22900
#	33957
#	51275
#	62677
#	76084
#	89511
#	100924
#	122205
#
# Disc length: 1759 seconds
#
# Revision: 0
# Processed by: cddbd v1.5.2PL0 Copyright (c) Steve Scherf et al.
# Submitted via: CDex 1.70beta2
#
DISCID=7206dd0a
DTITLE=Mike Siler - Dreams of a Dreamer
DYEAR=2005
DGENRE=Country
TTITLE0=Hey Good Lookin'
TTITLE1=Dreams of a Dreamer
TTITLE2=Love's Gonna Live Here
TTITLE3=One Lonely Fool
TTITLE4=Ridin' My Thumb To Mexico
TTITLE5=It's About To Get Western
TTITLE6=Almost Persuaded
TTITLE7=Sign of a Fool
TTITLE8=For the Good Times
TTITLE9=Green Snakes on the Ceiling
EXTD=YEAR: 2005
EXTT0=
EXTT1=
EXTT2=
EXTT3=
EXTT4=
EXTT5=
EXTT6=
EXTT7=
EXTT8=
EXTT9=
PLAYORDER=
